<svg width="14" height="15" viewBox="0 0 14 15" fill="none" xmlns="http://www.w3.org/2000/svg">
<g clip-path="url(#clip0_1_28)">
<path d="M8.62855 12C8.10333 12 7.6594 11.8188 7.29675 11.4563C6.9341 11.0938 6.75278 10.65 6.75278 10.125C6.75278 9.59998 6.9341 9.15623 7.29675 8.79373C7.6594 8.43123 8.10333 8.24998 8.62855 8.24998C9.15377 8.24998 9.5977 8.43123 9.96035 8.79373C10.323 9.15623 10.5043 9.59998 10.5043 10.125C10.5043 10.65 10.323 11.0938 9.96035 11.4563C9.5977 11.8188 9.15377 12 8.62855 12ZM1.50062 15C1.08795 15 0.734677 14.8531 0.440806 14.5594C0.146935 14.2656 0 13.9125 0 13.5V2.99999C0 2.5875 0.146935 2.23437 0.440806 1.94062C0.734677 1.64687 1.08795 1.5 1.50062 1.5H2.25093V0H3.75154V1.5H9.75401V0H11.2546V1.5H12.0049C12.4176 1.5 12.7709 1.64687 13.0648 1.94062C13.3586 2.23437 13.5056 2.5875 13.5056 2.99999V13.5C13.5056 13.9125 13.3586 14.2656 13.0648 14.5594C12.7709 14.8531 12.4176 15 12.0049 15H1.50062ZM1.50062 13.5H12.0049V5.99999H1.50062V13.5ZM1.50062 4.49999H12.0049V2.99999H1.50062V4.49999Z" fill="white"/>
</g>
<defs>
<clipPath id="clip0_1_28">
<rect width="13.4991" height="14.9928" fill="white" transform="scale(1.00048)"/>
</clipPath>
</defs>
</svg>
