<svg width="11" height="10" viewBox="0 0 11 10" fill="none" xmlns="http://www.w3.org/2000/svg">
<g clip-path="url(#clip0_1_79)">
<path d="M1.87357 4.22271C1.40334 4.22271 0.933112 4.23373 0.462883 4.25578C0.492272 4.00587 0.492272 3.75229 0.462883 3.49503C0.933112 3.51709 1.40334 3.52811 1.87357 3.52811H4.66189V0.727672H2.81036C2.34012 0.727672 1.8699 0.738698 1.39967 0.760749C1.42905 0.503491 1.42905 0.249908 1.39967 0C1.8699 0.0220507 2.34012 0.0330761 2.81036 0.0330761H7.53838C8.00861 0.0330761 8.47883 0.0220507 8.94907 0C8.91968 0.249908 8.91968 0.503491 8.94907 0.760749C8.47883 0.738698 8.00861 0.727672 7.53838 0.727672H5.47745V3.52811H8.53026C8.99314 3.52811 9.45971 3.51709 9.92993 3.49503C9.9079 3.75229 9.9079 4.00587 9.92993 4.25578C9.45971 4.23373 8.99314 4.22271 8.53026 4.22271H5.58766C5.94767 5.48695 6.43995 6.49025 7.06447 7.23263C7.89472 8.20286 8.99314 8.85335 10.3598 9.18411C10.1026 9.38256 9.93361 9.63982 9.85279 9.95589C8.79478 9.68392 7.869 9.15104 7.07549 8.35721C6.28198 7.56338 5.66112 6.60418 5.21294 5.4796C4.90435 6.49393 4.36065 7.40719 3.58183 8.21939C2.80302 9.03159 1.85888 9.62512 0.749429 9.99998C0.60983 9.65453 0.360019 9.42299 0 9.30539C1.27843 9.01138 2.34196 8.38844 3.19058 7.4366C4.0392 6.48474 4.52229 5.41344 4.63985 4.22271H1.87357Z" fill="#564334"/>
</g>
<defs>
<clipPath id="clip0_1_79">
<rect width="10.0874" height="9.73704" fill="white" transform="scale(1.027)"/>
</clipPath>
</defs>
</svg>
