<svg width="20" height="19" viewBox="0 0 20 19" fill="none" xmlns="http://www.w3.org/2000/svg">
<g clip-path="url(#clip0_1_46)">
<path d="M9.99998 18.358L8.54998 17.0574C6.86666 15.5401 5.47499 14.2312 4.37499 13.1307C3.27499 12.0302 2.4 11.0423 1.75 10.1669C1.1 9.29154 0.645832 8.48702 0.387499 7.75337C0.129167 7.01972 0 6.26939 0 5.50239C0 3.93504 0.524999 2.62614 1.575 1.57568C2.625 0.525228 3.93332 0 5.49999 0C6.36666 0 7.19166 0.183413 7.97499 0.550239C8.75831 0.917066 9.43331 1.43395 9.99998 2.10091C10.5667 1.43395 11.2417 0.917066 12.025 0.550239C12.8083 0.183413 13.6333 0 14.5 0C16.0667 0 17.375 0.525228 18.425 1.57568C19.475 2.62614 20 3.93504 20 5.50239C20 6.26939 19.8708 7.01972 19.6125 7.75337C19.3542 8.48702 18.9 9.29154 18.25 10.1669C17.6 11.0423 16.725 12.0302 15.625 13.1307C14.525 14.2312 13.1333 15.5401 11.45 17.0574L9.99998 18.358ZM9.99998 15.6568C11.6 14.2229 12.9167 12.9931 13.95 11.9677C14.9833 10.9423 15.8 10.0502 16.4 9.29154C17 8.53288 17.4167 7.85758 17.65 7.26566C17.8833 6.67373 18 6.08598 18 5.50239C18 4.50196 17.6667 3.66826 17 3.0013C16.3333 2.33434 15.5 2.00087 14.5 2.00087C13.7167 2.00087 12.9917 2.2218 12.325 2.66366C11.6583 3.10552 11.2 3.66826 10.95 4.35189H9.04998C8.79998 3.66826 8.34166 3.10552 7.67499 2.66366C7.00832 2.2218 6.28332 2.00087 5.49999 2.00087C4.49999 2.00087 3.66666 2.33434 2.99999 3.0013C2.33333 3.66826 2 4.50196 2 5.50239C2 6.08598 2.11667 6.67373 2.35 7.26566C2.58333 7.85758 2.99999 8.53288 3.59999 9.29154C4.19999 10.0502 5.01666 10.9423 6.04999 11.9677C7.08332 12.9931 8.39999 14.2229 9.99998 15.6568Z" fill="#6E3900"/>
</g>
<defs>
<clipPath id="clip0_1_46">
<rect width="19.9904" height="18.3492" fill="white" transform="scale(1.00048)"/>
</clipPath>
</defs>
</svg>
