<svg width="20" height="17" viewBox="0 0 20 17" fill="none" xmlns="http://www.w3.org/2000/svg">
<g clip-path="url(#clip0_1_88)">
<path d="M0 16.6974V14.7477C0.483332 14.7477 0.895831 14.6727 1.2375 14.5227C1.57917 14.3727 1.925 14.2103 2.275 14.0353C2.625 13.8603 3.01249 13.7021 3.43749 13.5604C3.86249 13.4187 4.38749 13.3479 5.01249 13.3479C5.63749 13.3479 6.15416 13.4187 6.56249 13.5604C6.97082 13.7021 7.34999 13.8603 7.69999 14.0353C8.04999 14.2103 8.39999 14.3727 8.74998 14.5227C9.09998 14.6727 9.51665 14.7477 9.99998 14.7477C10.4833 14.7477 10.9 14.6727 11.25 14.5227C11.6 14.3727 11.95 14.2103 12.3 14.0353C12.65 13.8603 13.0333 13.7021 13.45 13.5604C13.8667 13.4187 14.3875 13.3479 15.0125 13.3479C15.6375 13.3479 16.1583 13.4187 16.575 13.5604C16.9917 13.7021 17.375 13.8603 17.725 14.0353C18.075 14.2103 18.425 14.3727 18.775 14.5227C19.125 14.6727 19.5333 14.7477 20 14.7477V16.6974C19.3667 16.6974 18.8375 16.6224 18.4125 16.4724C17.9875 16.3224 17.6 16.16 17.25 15.985C16.9 15.81 16.5583 15.6517 16.225 15.5101C15.8917 15.3684 15.4833 15.2976 15 15.2976C14.5333 15.2976 14.1292 15.3684 13.7875 15.5101C13.4458 15.6517 13.1042 15.81 12.7625 15.985C12.4208 16.16 12.0375 16.3224 11.6125 16.4724C11.1875 16.6224 10.65 16.6974 9.99998 16.6974C9.34998 16.6974 8.81248 16.6224 8.38748 16.4724C7.96249 16.3224 7.57916 16.16 7.23749 15.985C6.89582 15.81 6.55832 15.6517 6.22499 15.5101C5.89166 15.3684 5.48749 15.2976 5.01249 15.2976C4.53749 15.2976 4.12916 15.3684 3.78749 15.5101C3.44582 15.6517 3.09999 15.81 2.75 15.985C2.4 16.16 2.0125 16.3224 1.5875 16.4724C1.1625 16.6224 0.633332 16.6974 0 16.6974ZM0 12.2481V10.2984C0.483332 10.2984 0.895831 10.2234 1.2375 10.0734C1.57917 9.92345 1.925 9.76097 2.275 9.586C2.625 9.41103 3.01249 9.25272 3.43749 9.11107C3.86249 8.96943 4.38749 8.89861 5.01249 8.89861C5.63749 8.89861 6.15416 8.96943 6.56249 9.11107C6.97082 9.25272 7.34999 9.41103 7.69999 9.586C8.04999 9.76097 8.39999 9.92345 8.74998 10.0734C9.09998 10.2234 9.51665 10.2984 9.99998 10.2984C10.4833 10.2984 10.9 10.2234 11.25 10.0734C11.6 9.92345 11.95 9.76097 12.3 9.586C12.65 9.41103 13.0333 9.25272 13.45 9.11107C13.8667 8.96943 14.3833 8.89861 15 8.89861C15.6333 8.89861 16.1583 8.96943 16.575 9.11107C16.9917 9.25272 17.375 9.41103 17.725 9.586C18.075 9.76097 18.425 9.92345 18.775 10.0734C19.125 10.2234 19.5333 10.2984 20 10.2984V12.2481C19.3667 12.2481 18.8375 12.1731 18.4125 12.0231C17.9875 11.8731 17.6 11.7107 17.25 11.5357C16.9 11.3607 16.5583 11.2024 16.225 11.0608C15.8917 10.9191 15.4833 10.8483 15 10.8483C14.5167 10.8483 14.1042 10.9191 13.7625 11.0608C13.4208 11.2024 13.0792 11.3607 12.7375 11.5357C12.3958 11.7107 12.0167 11.8731 11.6 12.0231C11.1833 12.1731 10.65 12.2481 9.99998 12.2481C9.34998 12.2481 8.81248 12.1731 8.38748 12.0231C7.96249 11.8731 7.57916 11.7107 7.23749 11.5357C6.89582 11.3607 6.55832 11.2024 6.22499 11.0608C5.89166 10.9191 5.48749 10.8483 5.01249 10.8483C4.53749 10.8483 4.12916 10.9191 3.78749 11.0608C3.44582 11.2024 3.09999 11.3607 2.75 11.5357C2.4 11.7107 2.0125 11.8731 1.5875 12.0231C1.1625 12.1731 0.633332 12.2481 0 12.2481ZM0 7.79878V5.84908C0.483332 5.84908 0.895831 5.7741 1.2375 5.62412C1.57917 5.47414 1.925 5.31167 2.275 5.1367C2.625 4.96172 3.01249 4.80342 3.43749 4.66177C3.86249 4.52012 4.38749 4.4493 5.01249 4.4493C5.63749 4.4493 6.15416 4.52012 6.56249 4.66177C6.97082 4.80342 7.34999 4.96172 7.69999 5.1367C8.04999 5.31167 8.39999 5.47414 8.74998 5.62412C9.09998 5.7741 9.51665 5.84908 9.99998 5.84908C10.4833 5.84908 10.9 5.7741 11.25 5.62412C11.6 5.47414 11.95 5.31167 12.3 5.1367C12.65 4.96172 13.0333 4.80342 13.45 4.66177C13.8667 4.52012 14.3833 4.4493 15 4.4493C15.6333 4.4493 16.1583 4.52012 16.575 4.66177C16.9917 4.80342 17.375 4.96172 17.725 5.1367C18.075 5.31167 18.425 5.47414 18.775 5.62412C19.125 5.7741 19.5333 5.84908 20 5.84908V7.79878C19.3667 7.79878 18.8375 7.72379 18.4125 7.57381C17.9875 7.42384 17.6 7.26136 17.25 7.08639C16.9 6.91142 16.5583 6.75311 16.225 6.61146C15.8917 6.46982 15.4833 6.399 15 6.399C14.5333 6.399 14.1292 6.46982 13.7875 6.61146C13.4458 6.75311 13.1042 6.91142 12.7625 7.08639C12.4208 7.26136 12.0375 7.42384 11.6125 7.57381C11.1875 7.72379 10.65 7.79878 9.99998 7.79878C9.34998 7.79878 8.81248 7.72379 8.38748 7.57381C7.96249 7.42384 7.57916 7.26136 7.23749 7.08639C6.89582 6.91142 6.55832 6.75311 6.22499 6.61146C5.89166 6.46982 5.48749 6.399 5.01249 6.399C4.53749 6.399 4.12916 6.46982 3.78749 6.61146C3.44582 6.75311 3.09999 6.91142 2.75 7.08639C2.4 7.26136 2.0125 7.42384 1.5875 7.57381C1.1625 7.72379 0.633332 7.79878 0 7.79878ZM0 3.34948V1.39978C0.483332 1.39978 0.895831 1.32479 1.2375 1.17482C1.57917 1.02484 1.925 0.862365 2.275 0.687392C2.625 0.51242 3.01249 0.354112 3.43749 0.212467C3.86249 0.0708222 4.38749 0 5.01249 0C5.63749 0 6.15416 0.0708222 6.56249 0.212467C6.97082 0.354112 7.34999 0.51242 7.69999 0.687392C8.04999 0.862365 8.39999 1.02484 8.74998 1.17482C9.09998 1.32479 9.51665 1.39978 9.99998 1.39978C10.4833 1.39978 10.9 1.32479 11.25 1.17482C11.6 1.02484 11.95 0.862365 12.3 0.687392C12.65 0.51242 13.0333 0.354112 13.45 0.212467C13.8667 0.0708222 14.3833 0 15 0C15.6333 0 16.1583 0.0708222 16.575 0.212467C16.9917 0.354112 17.375 0.51242 17.725 0.687392C18.075 0.862365 18.425 1.02484 18.775 1.17482C19.125 1.32479 19.5333 1.39978 20 1.39978V3.34948C19.3667 3.34948 18.8375 3.27449 18.4125 3.12451C17.9875 2.97453 17.6 2.81206 17.25 2.63709C16.9 2.46211 16.5583 2.30381 16.225 2.16216C15.8917 2.02051 15.4833 1.94969 15 1.94969C14.5333 1.94969 14.1292 2.02051 13.7875 2.16216C13.4458 2.30381 13.1042 2.46211 12.7625 2.63709C12.4208 2.81206 12.0375 2.97453 11.6125 3.12451C11.1875 3.27449 10.65 3.34948 9.99998 3.34948C9.34998 3.34948 8.81248 3.27449 8.38748 3.12451C7.96249 2.97453 7.57916 2.81206 7.23749 2.63709C6.89582 2.46211 6.55832 2.30381 6.22499 2.16216C5.89166 2.02051 5.48749 1.94969 5.01249 1.94969C4.53749 1.94969 4.12916 2.02051 3.78749 2.16216C3.44582 2.30381 3.09999 2.46211 2.75 2.63709C2.4 2.81206 2.0125 2.97453 1.5875 3.12451C1.1625 3.27449 0.633332 3.34948 0 3.34948Z" fill="#564334"/>
</g>
<defs>
<clipPath id="clip0_1_88">
<rect width="19.9904" height="16.6894" fill="white" transform="scale(1.00048)"/>
</clipPath>
</defs>
</svg>
